# xmcd
#
# Track frame offsets: 
#        150
#        15288
#        30192
#        42265
#        56886
#        72501
#        84117
#        97961
#        111223
#        124896
#        139165
#        153043
#        164543
#        178757
#        193283
#        206352
#        218487
#        238143
#        250239
#        263731
#        271192
#        285149
#        299949
#        312828
#        326034
#
# Disc length: 4524 seconds
#
# Revision: 2
# Processed by: cddbd v1.5.2PL0 Copyright (c) Steve Scherf et al.
# Submitted via: ExactAudioCopyFreeDBPlugin 1.0
#
DISCID=6611aa19
DTITLE=Charlie Poole - You Ain't Talkin' To Me Charlie Poole And The R
DTITLE=oots Of Country Music  [Disc 2]
DYEAR=2005
DGENRE=Traditional Appalachian 
TTITLE0=Charlie Poole with the North Carolina Ramblers - The Girl I Le
TTITLE0=ft in Sunny Tennessee
TTITLE1=Floyd County Ramblers - Sunny Tennessee
TTITLE2=Dock Walsh - Bulldog Down in Sunny Tennessee
TTITLE3=Arthur Collins with his Orchestra - Moving Day
TTITLE4=Charlie Poole with the North Carolina Ramblers - It's Moving D
TTITLE4=ay
TTITLE5=Frank Jenkins - Home Sweet, Home
TTITLE6=Charlie Poole with the North Carolina Ramblers - I'm The Man T
TTITLE6=hat Rode The Mule 'Round The World
TTITLE7=Uncle Dave Macon and Sid Harkreader - Man That Rode The Mule Aro
TTITLE7=und The World
TTITLE8=Charlie Poole with The Highlanders - Lynchburg Town
TTITLE9=Charlie Poole with Blue Ridge Highballers - Going Down to Lync
TTITLE9=hburg Town and Don't Let Your Deal Go Down
TTITLE10=Branch and Coleman - Some One
TTITLE11=Cal Stewart - Monkey on a String
TTITLE12=Charlie Poole with the North Carolina Ramblers - Monkey on a 
TTITLE12=String (Clean)
TTITLE13=Charlie Poole with the North Carolina Ramblers - Can I Sleep 
TTITLE13=in Your Barn Tonight Mister
TTITLE14=The Red Fox Chasers - May I Sleep in Your Barn Tonight, Miste
TTITLE14=r
TTITLE15=Byron Parker and his Mountaineers - Married Life Blues
TTITLE16=Fred Van Eps with his Orchestra - The Infanta March
TTITLE17=Charlie Poole with the North Carolina Ramblers - Sunset March
TTITLE18=Carter and Young - I'll Roll In My Sweet Baby's Arms
TTITLE19=Peerless Quartet - Goodbye Eliza Jane
TTITLE20=Charlie Poole with the North Carolina Ramblers - Good-Bye Swe
TTITLE20=et Liza Jane
TTITLE21=Charlie Poole with the North Carolina Ramblers - Good-Bye Boo
TTITLE21=ze (Clean)
TTITLE22=Gid Tanner and Fate Norris - Goodbye Booze
TTITLE23=Eddie Morton with his Orchestra - You Ain't Talking To Me
TTITLE24=Charlie Poole with the North Carolina Ramblers - You Ain't Ta
TTITLE24=lkin' To Me
EXTD=
EXTT0=
EXTT1=
EXTT2=
EXTT3=
EXTT4=
EXTT5=
EXTT6=
EXTT7=
EXTT8=
EXTT9=
EXTT10=
EXTT11=
EXTT12=
EXTT13=
EXTT14=
EXTT15=
EXTT16=
EXTT17=
EXTT18=
EXTT19=
EXTT20=
EXTT21=
EXTT22=
EXTT23=
EXTT24=
PLAYORDER=
